<?xml version="1.0" standalone="no"?>
<!DOCTYPE svg PUBLIC "-//W3C//DTD SVG 20010904//EN"
 "http://www.w3.org/TR/2001/REC-SVG-20010904/DTD/svg10.dtd">
<svg version="1.0" xmlns="http://www.w3.org/2000/svg"
 width="512.000000pt" height="512.000000pt" viewBox="0 0 512.000000 512.000000"
 preserveAspectRatio="xMidYMid meet">
<metadata>
Created by potrace 1.11, written by Peter Selinger 2001-2013
</metadata>
<g transform="translate(0.000000,512.000000) scale(0.100000,-0.100000)" fill="#60A0F1" stroke="none">
<path d="M2315 5109 c-777 -80 -1456 -489 -1890 -1139 -90 -135 -215 -381
-268 -529 -121 -338 -174 -704 -149 -1043 13 -191 32 -304 77 -484 154 -605
544 -1145 1080 -1496 772 -506 1758 -553 2582 -123 394 205 743 528 983 910
185 293 316 653 366 1010 22 156 25 507 6 655 -77 580 -328 1094 -733 1499
-395 395 -893 644 -1454 727 -123 18 -478 26 -600 13z m620 -58 c272 -41 508
-116 755 -240 750 -376 1254 -1089 1371 -1941 17 -124 17 -496 0 -620 -39
-283 -119 -550 -240 -795 -250 -508 -646 -906 -1146 -1150 -179 -88 -305 -136
-480 -181 -865 -225 -1787 26 -2417 659 -392 395 -632 879 -714 1442 -21 145
-24 493 -6 635 89 672 422 1264 947 1682 341 271 817 468 1245 517 52 6 109
13 125 15 77 11 437 -4 560 -23z"/>
<path d="M2292 4946 c-111 -11 -139 -22 -128 -52 2 -6 7 -62 11 -125 4 -63 12
-125 17 -138 8 -21 12 -23 56 -16 26 4 99 13 162 19 l115 11 -4 145 c-2 80 -8
151 -13 158 -12 14 -59 14 -216 -2z m108 -30 c0 -21 -21 -31 -31 -15 -14 22
-11 29 11 29 11 0 20 -6 20 -14z m75 4 c8 -13 27 -192 21 -198 -7 -6 -74 37
-79 51 -2 7 3 22 10 34 8 12 12 26 9 31 -3 6 1 15 9 22 19 16 19 30 0 30 -8 0
-15 9 -15 20 0 21 33 29 45 10z m-138 -19 c1 -15 -9 -20 -59 -27 -36 -5 -63
-15 -66 -22 -3 -11 10 -12 65 -7 l68 7 16 -34 c16 -32 15 -36 -2 -71 -17 -33
-24 -37 -57 -37 -40 0 -83 -22 -65 -33 14 -9 173 15 173 25 0 5 -9 12 -20 16
-14 5 -17 11 -10 22 8 12 15 9 43 -18 18 -18 43 -32 57 -32 16 0 21 -3 14 -10
-5 -5 -67 -15 -138 -21 -101 -9 -130 -9 -136 1 -9 15 -24 229 -16 237 7 7 71
20 106 22 18 1 26 -4 27 -18z m73 -45 c0 -15 -14 -35 -21 -30 -15 9 -10 34 6
34 8 0 15 -2 15 -4z"/>
<path d="M2258 4823 c-13 -3 -18 -14 -18 -36 0 -48 9 -56 55 -48 39 6 40 8 43
49 3 42 3 42 -30 41 -18 -1 -41 -3 -50 -6z m52 -38 c0 -8 -9 -15 -20 -15 -11
0 -20 7 -20 15 0 8 9 15 20 15 11 0 20 -7 20 -15z"/>
<path d="M2695 4949 c-10 -15 -3 -19 54 -26 61 -7 70 11 14 26 -48 14 -60 14
-68 0z"/>
<path d="M2842 4909 c3 -8 21 -15 42 -17 29 -3 36 -7 34 -20 -3 -13 -13 -16
-39 -14 -47 3 -75 -24 -35 -34 14 -3 26 -10 26 -14 0 -27 -66 -39 -147 -25
-46 8 -82 0 -67 -15 5 -5 36 -11 69 -14 33 -2 60 -5 60 -6 0 -1 38 -2 85 -4
59 -1 96 -8 123 -21 34 -17 39 -18 54 -3 14 15 12 17 -26 29 -41 12 -42 14
-36 45 5 27 2 34 -15 39 -35 11 -20 40 19 40 37 0 52 18 24 29 -9 4 -53 10
-96 13 -66 5 -79 4 -75 -8z m111 -95 c9 -9 -11 -44 -26 -44 -7 0 -18 4 -26 9
-12 8 -12 12 -2 25 14 16 42 21 54 10z"/>
<path d="M2645 4900 c-13 -21 8 -28 84 -32 49 -2 76 1 78 8 7 22 -149 45 -162
24z"/>
<path d="M1883 4870 c-3 -10 -14 -22 -25 -26 -28 -9 -16 -30 15 -26 45 6 30
-15 -24 -33 -52 -18 -77 -13 -46 9 24 18 21 26 -8 26 -14 0 -25 5 -25 10 0 6
-7 10 -15 10 -8 0 -15 -9 -15 -20 0 -11 -6 -20 -13 -20 -8 0 -22 -9 -31 -19
-21 -23 -5 -37 24 -21 12 6 26 9 33 7 7 -3 0 -10 -15 -16 -34 -13 -41 -57 -8
-46 26 8 26 -7 0 -23 -26 -16 -16 -33 17 -30 38 4 39 -17 2 -28 -33 -9 -59
-38 -46 -50 3 -4 38 7 77 25 39 17 77 31 86 31 28 0 9 -23 -32 -37 -42 -15
-72 -38 -61 -49 3 -4 29 3 56 15 27 11 52 21 55 21 3 0 12 -13 21 -30 21 -41
36 -38 33 8 -3 37 -3 37 39 40 31 2 46 9 54 23 16 30 6 33 -53 15 -33 -9 -56
-12 -62 -6 -15 15 -3 21 71 32 80 12 97 19 102 43 3 19 6 19 -86 -2 -33 -8
-30 25 3 37 28 11 23 35 -7 27 -10 -3 -23 1 -29 8 -8 10 -6 15 9 20 12 3 21
13 21 21 0 16 -9 17 -43 5 -36 -14 -43 0 -7 15 40 17 41 46 1 38 -16 -4 -32
-1 -35 5 -11 17 -27 13 -33 -9z m57 -104 c0 -8 -9 -18 -20 -21 -31 -10 -25
-36 8 -33 19 2 27 -2 27 -12 0 -10 -10 -15 -29 -15 -24 0 -31 6 -42 37 -11 33
-11 39 4 48 25 14 52 12 52 -4z m-89 -43 c15 -41 8 -66 -23 -74 -34 -9 -39 14
-8 31 28 15 25 33 -4 28 -30 -6 -43 17 -18 31 28 17 42 12 53 -16z"/>
<path d="M2665 4840 c-10 -16 -5 -19 58 -26 38 -5 57 -3 57 4 0 15 -9 19 -61
27 -32 5 -49 3 -54 -5z"/>
<path d="M3166 4807 c-15 -19 -26 -41 -26 -50 0 -32 20 -27 45 13 30 48 34 48
170 -1 110 -40 109 -40 106 -93 -1 -36 2 -46 13 -46 19 0 29 34 24 81 -3 32
-7 36 -66 58 -34 14 -62 29 -61 35 4 37 -22 51 -38 21 -7 -13 -14 -13 -57 0
-70 21 -82 19 -110 -18z"/>
<path d="M3227 4773 c-18 -17 -3 -31 38 -36 25 -4 68 -16 95 -28 46 -20 95
-20 74 0 -9 9 -179 71 -193 71 -4 0 -11 -3 -14 -7z"/>
<path d="M2650 4688 l0 -45 47 -6 c26 -3 52 -3 59 0 13 5 29 71 19 81 -3 3
-32 8 -65 10 l-60 4 0 -44z m90 -3 c0 -10 -10 -15 -30 -15 -20 0 -30 5 -30 15
0 10 10 15 30 15 20 0 30 -5 30 -15z"/>
<path d="M2820 4683 c0 -21 4 -43 8 -49 4 -7 35 -15 69 -19 l62 -7 18 36 c12
27 14 39 6 47 -13 13 -82 28 -130 29 -31 0 -33 -2 -33 -37z m99 1 c30 -6 41
-27 21 -39 -6 -4 -29 -4 -50 0 -30 5 -40 11 -40 26 0 20 16 23 69 13z"/>
<path d="M3206 4688 c-25 -59 -29 -87 -15 -92 8 -2 50 -15 94 -29 53 -17 83
-23 91 -16 6 5 17 30 24 55 15 53 16 52 -70 85 -97 37 -108 36 -124 -3z m112
-23 c28 -9 52 -21 52 -26 0 -5 -4 -9 -10 -9 -20 0 -120 42 -120 50 0 5 6 8 13
5 6 -2 36 -11 65 -20z m-19 -46 c34 -12 59 -25 54 -29 -9 -10 -133 29 -133 41
0 13 9 11 79 -12z"/>
<path d="M3647 4663 c-9 -8 32 -53 49 -53 10 0 11 7 3 30 -10 28 -36 40 -52
23z"/>
<path d="M1327 4623 c-4 -3 5 -26 19 -50 14 -24 22 -48 19 -53 -4 -6 -24 -19
-46 -31 -44 -22 -58 -44 -40 -62 8 -8 18 -4 38 14 56 50 64 54 74 38 22 -36
-10 -123 -58 -154 -28 -19 -30 -45 -4 -45 18 0 74 54 82 79 3 9 13 9 37 0 46
-16 53 -2 15 30 -36 30 -43 61 -15 61 9 0 56 -7 105 -16 80 -15 89 -15 112 0
50 33 32 41 -82 41 -171 0 -207 21 -111 66 53 25 78 44 78 60 0 17 -25 9 -84
-26 -32 -20 -59 -35 -61 -33 -1 2 -12 22 -25 46 -22 40 -38 50 -53 35z"/>
<path d="M3594 4608 c-7 -10 41 -58 59 -58 15 0 6 27 -16 48 -27 25 -33 27
-43 10z"/>
<path d="M3800 4599 c0 -16 -4 -19 -17 -14 -35 15 -63 17 -63 6 0 -6 18 -18
40 -27 22 -9 40 -21 40 -26 0 -6 -8 -7 -17 -3 -10 4 -23 9 -30 12 -15 6 -83
-98 -83 -126 0 -12 9 -23 23 -27 12 -4 38 -17 57 -30 19 -13 40 -24 47 -24 12
0 83 102 83 119 0 5 -12 19 -27 30 -14 12 -23 24 -19 28 3 4 21 -8 39 -26 22
-21 39 -29 50 -25 25 9 21 21 -13 41 -27 16 -41 35 -22 32 20 -3 32 2 32 16 0
19 -34 19 -50 0 -21 -25 -51 -1 -43 35 4 23 2 30 -11 30 -10 0 -16 -8 -16 -21z
m5 -110 c20 -12 34 -24 31 -26 -2 -3 -24 7 -48 21 -24 14 -38 26 -31 26 6 0
28 -10 48 -21z m10 -59 c3 -5 3 -10 0 -10 -12 0 -85 45 -85 53 0 9 76 -29 85
-43z m-54 -16 c23 -14 39 -28 36 -30 -7 -8 -87 35 -87 46 0 15 6 13 51 -16z"/>
<path d="M3067 4593 c-17 -16 -5 -33 21 -33 74 0 255 -64 305 -108 14 -12 22
-13 42 -4 36 16 31 28 -17 45 -24 9 -101 36 -171 61 -123 44 -166 54 -180 39z"/>
<path d="M3560 4546 c0 -8 5 -18 10 -21 17 -10 11 -25 -9 -25 -11 0 -27 -7
-36 -16 -20 -20 -8 -37 49 -66 23 -11 78 -58 123 -104 82 -83 117 -104 148
-86 15 8 13 12 -16 32 -19 13 -65 49 -104 80 -38 31 -92 72 -120 90 l-49 34
31 8 c42 11 46 20 26 57 -18 32 -53 42 -53 17z"/>
<path d="M2295 4474 c-335 -45 -667 -184 -940 -393 -85 -64 -256 -232 -328
-321 -377 -466 -521 -1082 -391 -1669 132 -592 539 -1100 1087 -1356 894 -417
1953 -113 2494 717 335 513 406 1181 188 1763 -98 261 -232 471 -434 679 -316
324 -711 522 -1158 581 -138 18 -382 18 -518 -1z m485 -34 c444 -55 835 -245
1145 -555 516 -516 698 -1278 469 -1970 -186 -564 -632 -1020 -1189 -1215
-581 -203 -1215 -123 -1722 219 -723 488 -1028 1386 -752 2216 164 496 534
910 1009 1133 179 84 391 146 590 171 95 12 353 13 450 1z"/>
<path d="M2335 4286 c-707 -118 -1276 -663 -1425 -1361 -27 -129 -38 -402 -21
-542 39 -314 174 -669 348 -913 87 -121 262 -297 378 -379 301 -212 724 -326
1134 -307 379 17 731 118 947 271 98 70 114 99 19 35 -153 -103 -421 -199
-658 -234 -205 -31 -470 -29 -600 5 -44 11 -150 84 -246 168 -62 54 -221 236
-221 253 0 4 13 8 30 8 25 0 30 -4 36 -35 l6 -35 617 0 617 0 17 223 c10 122
21 248 24 280 l6 57 298 0 299 0 0 70 0 70 -130 0 -130 0 0 160 0 160 28 31
c23 26 39 32 112 45 203 35 331 110 393 229 59 116 13 326 -116 528 l-37 57
-458 0 -457 0 -42 -67 c-56 -93 -82 -146 -109 -227 -55 -160 -40 -269 49 -363
64 -68 116 -99 222 -132 l83 -26 -172 -234 c-95 -129 -177 -236 -182 -238 -6
-2 -29 30 -52 71 l-42 74 0 606 0 606 213 2 212 3 0 205 0 205 -212 3 -213 2
0 230 0 229 -137 3 c-76 2 -176 1 -223 -2 l-85 -5 -3 -47 c-3 -45 -5 -48 -79
-103 -42 -32 -112 -89 -156 -128 l-80 -71 -53 12 c-29 6 -90 21 -135 33 l-82
22 29 24 c42 33 155 100 254 149 172 85 349 149 565 204 65 17 121 33 124 36
11 11 -226 -21 -340 -46 -222 -49 -452 -145 -623 -259 -39 -26 -76 -50 -82
-54 -6 -3 -30 8 -53 24 -51 38 -50 40 73 116 271 168 644 280 944 284 59 1 63
2 37 11 -49 16 -369 19 -460 4z m113 -549 l-3 -73 -132 25 c-73 13 -133 28
-133 32 0 9 118 120 201 189 l64 53 3 -76 c2 -42 2 -110 0 -150z m312 -21 l0
-223 38 -7 c20 -3 117 -6 215 -6 l177 0 0 -70 0 -70 -215 0 -215 0 -2 -552 -3
-553 -27 50 c-50 95 -48 94 -93 18 l-40 -68 -3 553 -2 552 -215 0 -215 0 0 70
0 70 184 0 c101 0 198 3 215 6 l31 7 0 223 0 224 85 0 85 0 0 -224z m-1010
102 c0 -3 -31 -34 -69 -68 -122 -109 -235 -258 -327 -433 l-51 -98 -37 55
c-20 30 -38 61 -41 68 -6 16 75 153 143 242 65 84 174 199 252 263 l65 54 32
-38 c18 -21 32 -41 33 -45z m133 -73 c30 -14 92 -34 136 -43 l81 -18 -32 -35
c-145 -158 -302 -421 -360 -600 -12 -38 -27 -69 -33 -69 -18 0 -117 36 -160
58 -22 11 -60 37 -83 58 l-44 39 21 52 c72 183 187 359 319 491 52 50 95 92
97 92 1 0 27 -11 58 -25z m446 -88 c73 -8 116 -17 119 -25 3 -9 -37 -12 -173
-12 -185 0 -184 0 -147 42 11 13 24 16 51 12 20 -3 87 -11 150 -17z m-89 -457
l210 0 0 -186 0 -186 -32 6 c-18 3 -53 8 -78 12 -76 10 -75 8 -40 72 18 31 50
81 73 111 l40 54 -24 45 c-13 24 -29 46 -34 48 -6 2 -135 -39 -288 -91 -153
-52 -282 -95 -287 -95 -29 0 126 352 212 485 l33 50 3 -162 2 -163 210 0z
m-1016 88 c4 -24 17 -65 29 -93 l23 -50 -32 -101 c-32 -97 -84 -329 -84 -372
0 -11 -14 -50 -31 -87 -57 -121 -49 -257 21 -351 32 -45 110 -90 238 -140 72
-27 73 -28 68 -58 -3 -17 -8 -81 -12 -143 l-7 -112 118 -3 118 -3 25 -73 c13
-40 50 -125 82 -190 33 -64 57 -118 55 -121 -9 -9 -172 51 -260 96 -109 55
-218 126 -249 164 -55 65 -180 348 -225 509 -39 141 -61 304 -61 450 0 162 11
254 50 405 26 104 108 315 121 315 4 0 10 -19 13 -42z m181 -274 c19 -14 68
-40 109 -58 l75 -33 -82 -32 c-45 -17 -111 -50 -145 -71 -35 -22 -64 -40 -66
-40 -4 0 26 140 45 213 7 26 17 47 22 47 4 0 24 -12 42 -26z m2616 -77 c55
-87 72 -132 77 -199 4 -58 1 -75 -22 -122 -60 -122 -222 -186 -476 -186 -310
0 -490 98 -490 267 0 57 30 164 66 236 l24 47 398 0 397 0 26 -43z m-1870 -8
c-56 -76 -66 -126 -65 -309 0 -92 8 -226 18 -303 10 -76 16 -141 13 -143 -2
-2 -35 38 -73 91 -38 52 -71 95 -74 95 -5 0 3 -119 24 -362 l6 -68 -210 0
c-152 0 -210 3 -210 12 0 6 7 99 15 207 8 108 22 293 30 411 9 118 19 218 23
222 9 9 502 187 520 187 7 1 -1 -17 -17 -40z m247 -125 l52 -7 0 -407 0 -407
-42 -76 c-23 -42 -45 -74 -48 -72 -4 2 -19 22 -35 45 -31 45 -39 86 -80 430
-27 220 -32 384 -14 456 l11 44 52 0 c28 0 75 -3 104 -6z m-915 -261 c-23
-327 -20 -313 -51 -313 -32 1 -110 29 -140 51 -35 25 -52 69 -52 135 0 73 31
141 93 204 42 43 133 109 152 109 7 1 6 -59 -2 -186z m1986 -248 c48 -24 61
-76 61 -235 l0 -140 -91 0 c-81 0 -90 2 -85 18 2 9 10 91 16 182 6 91 13 171
15 178 6 16 50 15 84 -3z m-643 -450 c82 -140 151 -254 154 -254 3 0 52 61
109 135 57 74 105 133 106 132 2 -3 -20 -316 -31 -435 l-6 -63 -484 0 -484 0
0 33 c0 17 -7 113 -15 212 -23 292 -33 280 92 120 l107 -136 23 38 c13 21 80
136 151 255 70 120 128 218 128 218 1 0 68 -115 150 -255z m-815 -67 c2 -12
38 -433 36 -434 -1 -1 -26 3 -55 8 -40 8 -58 18 -73 39 -43 60 -159 334 -159
375 0 11 23 14 125 14 69 0 125 -1 126 -2z m-504 -296 c108 -73 258 -140 373
-166 14 -3 36 -22 50 -43 69 -103 282 -290 413 -363 32 -18 56 -35 53 -37 -7
-7 -181 45 -281 84 -194 77 -357 185 -516 343 -105 105 -239 269 -239 293 0 5
19 -8 43 -30 23 -21 70 -58 104 -81z"/>
<path d="M3710 1542 c-45 -22 -80 -75 -80 -121 0 -97 107 -166 190 -124 108
56 104 202 -7 249 -42 18 -61 18 -103 -4z m94 -16 c46 -19 66 -52 66 -107 0
-87 -75 -134 -155 -97 -76 34 -71 163 7 201 40 20 41 20 82 3z"/>
<path d="M3719 1496 c-8 -8 3 -156 12 -156 5 0 9 14 9 31 0 26 3 30 22 27 14
-2 24 -12 28 -27 3 -14 11 -26 18 -29 15 -5 16 32 2 58 -7 13 -7 21 0 25 17
11 11 54 -9 65 -19 10 -74 14 -82 6z m69 -43 c3 -19 -1 -23 -22 -23 -21 0 -26
5 -26 26 0 21 4 25 23 22 14 -2 23 -11 25 -25z"/>
<path d="M978 4376 c-38 -34 -68 -65 -68 -69 0 -4 20 -32 44 -61 50 -62 70
-113 61 -156 -6 -26 -4 -30 14 -30 35 0 29 78 -11 152 l-33 60 54 50 55 50
-19 34 c-10 19 -21 34 -24 34 -3 -1 -36 -29 -73 -64z m72 7 c0 -10 -82 -93
-92 -93 -21 0 -4 32 34 64 40 35 58 44 58 29z"/>
<path d="M1066 4319 c-57 -52 -76 -97 -36 -84 16 5 20 2 20 -14 0 -24 20 -27
50 -9 31 20 36 0 7 -30 -15 -16 -27 -31 -27 -35 0 -14 24 -7 46 14 12 12 28
18 34 14 8 -5 -2 -22 -30 -50 -28 -28 -41 -49 -37 -59 9 -24 25 -19 41 12 19
38 90 100 132 118 26 11 34 20 34 39 l0 26 -52 -35 c-55 -37 -83 -38 -49 -2
20 21 28 46 15 46 -3 0 -19 -9 -35 -21 -28 -19 -29 -19 -29 -2 0 11 5 24 12
31 14 14 -6 42 -30 42 -12 0 -13 3 -4 12 14 14 16 38 3 38 -5 0 -35 -23 -65
-51z m59 -29 c6 -10 -29 -50 -45 -50 -11 0 -13 20 -4 44 7 18 39 22 49 6z"/>
<path d="M4022 4354 c2 -11 22 -26 50 -38 27 -11 74 -44 105 -73 32 -29 63
-53 69 -53 7 0 17 -20 23 -45 11 -44 38 -69 66 -63 11 2 7 14 -15 46 -24 37
-45 83 -75 170 -2 6 -16 12 -29 12 -14 0 -56 12 -93 26 -105 39 -106 39 -101
18z m207 -101 l11 -25 -29 24 c-35 27 -39 38 -12 31 10 -2 24 -16 30 -30z"/>
<path d="M4050 4268 c-27 -45 -25 -61 10 -81 16 -10 47 -38 67 -63 21 -24 44
-44 51 -44 21 0 82 40 82 53 0 15 -160 167 -176 167 -8 0 -23 -15 -34 -32z
m43 -15 c-19 -7 -16 -31 6 -42 23 -13 35 -3 20 16 -9 9 -8 13 0 13 20 0 25
-31 7 -48 -15 -15 -18 -14 -43 10 -22 23 -24 29 -13 42 7 9 18 16 24 15 7 0 6
-2 -1 -6z m108 -89 c23 -25 24 -26 5 -40 -18 -12 -22 -12 -43 8 -13 12 -23 26
-22 32 0 6 7 1 16 -11 8 -13 22 -23 29 -23 21 0 17 28 -6 35 -11 3 -20 11 -20
16 0 16 16 10 41 -17z"/>
<path d="M814 4215 c-9 -23 2 -29 37 -19 41 12 42 28 1 32 -22 2 -34 -2 -38
-13z"/>
<path d="M3982 4157 c-18 -18 -32 -40 -32 -48 0 -8 27 -38 60 -67 l60 -53 40
33 c22 18 40 40 40 49 0 19 -103 119 -122 119 -8 0 -28 -15 -46 -33z m98 -42
c18 -19 30 -38 26 -42 -3 -4 -26 12 -49 35 -26 26 -36 42 -26 42 8 0 30 -16
49 -35z m-35 -35 c21 -22 36 -43 32 -47 -8 -7 -87 65 -87 79 0 17 17 7 55 -32z"/>
<path d="M877 4123 c-11 -10 -8 -43 3 -43 15 0 60 31 60 41 0 10 -53 12 -63 2z"/>
<path d="M976 4068 c-15 -47 -15 -79 0 -85 25 -9 35 11 28 55 -6 41 -21 55
-28 30z"/>
<path d="M526 3752 c-18 -34 -20 -43 -8 -40 13 5 72 -24 72 -34 0 -15 -62
-128 -70 -128 -4 0 -23 11 -42 24 l-35 23 -16 -25 -15 -26 101 -55 c56 -29
105 -58 108 -64 4 -5 14 4 23 20 l15 30 -40 18 c-22 10 -42 22 -45 26 -8 13
55 129 70 129 7 0 29 -11 48 -23 l34 -24 16 26 15 27 -101 54 c-56 29 -104 58
-107 63 -4 5 -14 -4 -23 -21z"/>
<path d="M4433 3756 c-37 -31 -57 -82 -47 -122 24 -105 114 -171 189 -140 48
20 75 61 75 113 0 88 -62 161 -144 170 -35 4 -47 1 -73 -21z m133 -60 c62 -62
43 -156 -32 -156 -49 0 -94 43 -101 97 -5 35 -2 45 20 67 36 36 72 33 113 -8z"/>
<path d="M4702 3482 c-10 -7 -9 -16 3 -45 8 -20 15 -40 15 -45 0 -9 -155 -72
-177 -72 -9 0 -9 -8 -2 -30 6 -16 12 -30 13 -30 1 0 41 16 89 35 48 19 91 35
96 35 6 0 16 -19 22 -42 7 -24 13 -44 15 -46 1 -1 13 2 27 9 25 11 25 11 7 43
-10 17 -31 68 -46 113 -28 81 -36 91 -62 75z"/>
<path d="M351 3375 c-75 -123 -34 -245 81 -245 78 0 138 79 138 183 0 58 -6
66 -44 51 -12 -4 -13 -10 -4 -29 25 -55 -29 -155 -85 -155 -34 0 -74 34 -82
70 -7 34 17 93 47 114 19 13 19 15 3 40 -10 14 -18 26 -19 26 -1 0 -17 -25
-35 -55z"/>
<path d="M4804 3194 c-9 -4 -8 -17 2 -50 10 -35 11 -46 1 -49 -45 -15 -172
-43 -179 -39 -9 6 -10 -12 -2 -42 5 -21 6 -21 67 -4 34 9 79 20 99 24 36 7 37
6 47 -30 6 -21 8 -41 5 -46 -5 -8 39 -12 47 -3 3 2 -7 55 -22 117 -15 61 -25
116 -23 120 5 8 -23 10 -42 2z"/>
<path d="M256 3048 c-8 -13 -22 -61 -30 -107 -18 -95 -20 -114 -7 -107 8 6
204 -29 220 -38 5 -3 11 4 15 17 8 30 7 47 -1 45 -5 -1 -26 1 -49 5 -38 6 -40
8 -36 37 4 25 14 36 53 56 27 13 52 23 56 22 4 -2 10 14 14 35 3 21 3 36 0 34
-27 -15 -103 -48 -104 -45 -31 62 -33 63 -74 66 -35 3 -44 -1 -57 -20z m80
-43 c4 -9 3 -40 -1 -70 -6 -48 -9 -55 -28 -55 -50 1 -57 31 -25 113 11 30 45
37 54 12z"/>
<path d="M4660 2850 c0 -24 4 -30 23 -30 36 0 44 -12 50 -72 5 -56 5 -57 -24
-70 -21 -9 -29 -20 -29 -38 0 -24 20 -67 20 -44 0 12 190 134 208 134 7 0 12
15 12 36 0 24 -4 34 -12 31 -7 -2 -24 0 -38 5 -14 6 -67 25 -117 43 l-93 34 0
-29z m160 -74 l32 -13 -35 -22 c-19 -11 -37 -21 -40 -21 -2 0 -7 16 -9 35 -4
39 3 42 52 21z"/>
<path d="M190 2695 l0 -30 89 3 c105 4 121 -5 121 -73 0 -68 -16 -77 -121 -73
l-89 3 0 -30 0 -30 87 3 c121 3 132 7 149 47 18 45 18 128 -1 165 -17 33 -35
38 -157 42 l-78 3 0 -30z"/>
<path d="M4830 2525 c-58 -19 -115 -34 -127 -34 -19 -1 -23 -7 -23 -35 0 -21
5 -33 13 -32 14 1 146 -56 147 -65 0 -9 -141 -51 -156 -45 -11 4 -14 -4 -14
-35 0 -23 4 -38 10 -34 5 3 57 -17 116 -45 59 -27 109 -50 110 -50 2 0 4 14 4
30 0 17 -4 30 -9 30 -4 0 -39 14 -77 32 l-69 31 74 23 c41 13 78 21 83 18 4
-3 8 6 8 20 0 13 3 31 6 40 4 10 1 16 -9 16 -22 0 -137 51 -137 60 0 4 30 16
68 25 37 9 73 19 80 21 6 2 12 17 12 34 0 16 -1 30 -2 29 -2 -1 -50 -16 -108
-34z"/>
<path d="M307 2362 c-94 -12 -117 -18 -113 -29 4 -8 6 -23 6 -34 0 -16 3 -18
19 -9 11 5 33 10 49 10 29 0 29 -1 39 -70 5 -39 7 -73 4 -75 -2 -3 -24 -5 -48
-5 -28 0 -43 -4 -43 -12 0 -26 13 -58 20 -53 14 9 213 34 222 29 4 -3 8 11 8
31 0 30 -3 35 -17 32 -10 -3 -34 -8 -54 -11 l-36 -6 -10 72 c-6 40 -9 75 -7
77 2 2 26 4 54 5 46 1 50 3 46 21 -3 11 -6 26 -6 33 0 6 -3 11 -7 11 -5 -1
-61 -8 -126 -17z"/>
<path d="M4646 2127 c-8 -32 -8 -37 8 -37 31 0 40 -28 26 -85 -10 -43 -18 -55
-37 -60 -13 -3 -28 -3 -32 0 -5 2 -13 -14 -19 -36 -9 -36 -8 -40 6 -34 41 16
227 55 238 51 16 -6 20 -1 29 43 5 24 4 32 -4 26 -7 -4 -42 18 -82 52 -39 32
-84 68 -99 80 l-28 23 -6 -23z m118 -123 c15 -14 27 -26 25 -28 -2 -2 -21 -6
-41 -10 -40 -7 -44 -3 -32 42 8 28 12 27 48 -4z"/>
<path d="M430 2015 c-11 -13 -10 -18 8 -31 55 -38 69 -128 27 -169 -58 -59
-145 -2 -145 94 0 15 5 32 12 39 7 7 10 12 7 12 -2 0 -18 4 -35 9 l-31 9 4
-52 c10 -119 59 -186 138 -186 119 0 161 147 74 253 -34 41 -41 44 -59 22z"/>
<path d="M4507 1675 l-14 -29 75 -35 76 -36 -98 -5 -97 -5 51 -72 c27 -39 50
-74 50 -77 0 -9 -123 54 -131 67 -4 5 -15 -5 -24 -22 -9 -18 -14 -35 -11 -39
3 -3 6 -2 6 1 0 4 46 -16 103 -45 56 -29 105 -54 108 -56 3 -1 13 13 22 33 9
19 13 35 8 35 -8 0 -19 16 -76 103 l-18 28 83 -2 83 -2 17 33 17 33 -101 49
c-55 28 -104 55 -107 60 -4 6 -13 -1 -22 -17z"/>
<path d="M617 1599 c-12 -7 -15 -14 -8 -22 5 -7 26 -41 46 -77 34 -60 35 -65
19 -77 -30 -22 -44 -15 -68 36 -22 48 -22 48 -49 35 -26 -14 -26 -15 -7 -34
10 -10 26 -33 35 -49 14 -28 14 -31 -4 -41 -11 -5 -23 -10 -28 -10 -4 0 -26
33 -48 74 -37 69 -41 73 -62 63 -20 -9 -21 -12 -9 -26 7 -9 35 -55 61 -103 36
-64 52 -85 61 -78 6 6 54 34 107 63 l95 53 -57 102 c-31 56 -58 102 -61 102
-3 -1 -13 -5 -23 -11z"/>
<path d="M4336 1365 c-9 -14 -13 -25 -8 -25 5 0 14 -11 20 -24 9 -20 7 -29
-14 -57 -14 -19 -29 -40 -33 -48 -7 -11 -15 -12 -39 -3 -28 10 -34 8 -52 -15
-20 -26 -27 -49 -12 -39 9 6 218 -27 244 -38 12 -5 21 0 33 18 15 23 15 27 2
40 -8 8 -38 60 -66 116 -29 55 -53 100 -55 100 -2 0 -11 -11 -20 -25z m68
-151 l17 -37 -37 6 c-47 8 -50 11 -30 42 22 33 29 32 50 -11z"/>
<path d="M755 1299 c-4 -11 -5 -21 -3 -22 1 -1 20 -11 40 -21 74 -38 96 -118
44 -162 -15 -13 -38 -24 -50 -24 -45 0 -106 69 -106 120 0 21 -24 27 -47 12
-16 -10 19 -87 59 -129 60 -62 133 -66 188 -11 60 59 31 168 -61 228 -53 36
-56 36 -64 9z"/>
<path d="M4133 1098 c-20 -19 -19 -20 41 -78 l61 -60 -60 1 c-33 0 -85 4 -114
8 -49 7 -57 6 -78 -15 l-22 -22 85 -84 c47 -46 89 -84 93 -86 4 -1 15 6 25 17
16 18 14 21 -41 75 l-58 57 113 -2 c100 -2 115 0 130 17 17 18 14 22 -69 105
-86 85 -87 86 -106 67z"/>
<path d="M1000 1074 c0 -5 -36 -48 -80 -94 l-79 -85 24 -25 c18 -18 25 -20 25
-9 0 8 23 37 51 64 l50 50 -2 -108 c-1 -99 0 -110 20 -131 l22 -24 61 67 c33
36 72 76 86 89 l25 24 -21 20 -20 21 -32 -37 c-18 -20 -42 -49 -54 -64 l-21
-27 -5 105 c-3 58 -2 108 3 111 4 3 -6 18 -23 34 -16 16 -30 24 -30 19z"/>
<path d="M3823 825 c-83 -63 -93 -78 -93 -136 0 -35 6 -47 39 -80 31 -31 46
-39 75 -39 43 0 59 7 144 68 35 25 59 48 53 51 -13 8 -131 173 -131 183 0 16
-16 7 -87 -47z m102 -76 c25 -34 45 -65 45 -69 0 -11 -74 -58 -103 -65 -38
-10 -89 46 -85 93 2 29 11 43 46 69 24 18 45 33 48 33 2 0 24 -27 49 -61z"/>
<path d="M1230 739 c-7 -67 -19 -126 -25 -133 -10 -9 -5 -17 20 -34 25 -16 34
-18 38 -8 3 7 53 40 112 74 l107 60 -25 17 c-24 16 -27 15 -47 -5 -23 -23 -15
-26 -95 26 -26 17 -34 57 -13 70 7 5 5 11 -8 21 -52 39 -50 41 -64 -88z m90
-49 c14 -10 23 -20 20 -22 -25 -19 -63 -39 -67 -34 -7 7 6 76 15 76 4 0 18 -9
32 -20z"/>
<path d="M3625 692 c-17 -8 -24 -17 -17 -19 6 -3 12 -16 12 -29 0 -19 -11 -30
-56 -52 l-56 -27 -18 23 -19 23 -38 -20 c-21 -11 -33 -20 -27 -21 15 0 175
-115 196 -141 16 -19 19 -19 48 -4 23 12 29 19 21 29 -6 7 -12 67 -13 133 l-3
121 -30 -16z m-7 -178 l-3 -27 -33 28 -34 28 34 18 c32 17 33 17 36 -2 2 -10
2 -31 0 -45z"/>
<path d="M1512 647 c-6 -18 -32 -67 -56 -110 l-44 -77 21 -15 c24 -17 37 -19
37 -7 0 13 101 196 111 203 5 3 -6 12 -24 21 l-34 16 -11 -31z"/>
<path d="M1613 600 c-9 -24 -9 -30 3 -30 18 0 143 -50 149 -60 5 -9 -51 -149
-66 -165 -15 -15 -10 -23 22 -34 38 -13 42 -13 35 -2 -6 9 73 203 87 212 4 3
-38 25 -95 49 -57 23 -108 46 -113 51 -7 5 -15 -3 -22 -21z"/>
<path d="M3319 549 l-26 -10 18 -37 c25 -47 24 -58 -3 -66 -41 -10 -54 -7 -92
28 -35 33 -39 34 -71 23 l-35 -12 50 -34 49 -34 -19 -25 c-24 -30 -25 -60 -4
-90 21 -30 68 -29 169 4 89 30 94 32 79 42 -15 10 -77 199 -69 212 8 12 -11
12 -46 -1z m35 -161 c11 -41 6 -47 -49 -64 -50 -16 -57 -16 -71 -3 -23 24 -7
47 49 68 66 25 64 25 71 -1z"/>
<path d="M1875 502 c-8 -21 -6 -44 3 -38 8 4 151 -31 160 -39 5 -5 -39 -170
-49 -181 -7 -8 -2 -14 15 -18 13 -3 31 -9 40 -12 12 -4 15 -2 10 9 -7 20 44
210 59 219 7 4 10 8 7 8 -3 1 -58 16 -122 34 -96 26 -118 30 -123 18z"/>
<path d="M2987 453 c-12 -3 -15 -8 -9 -16 14 -16 54 -206 47 -218 -7 -10 19
-12 53 -3 15 4 19 10 13 18 -12 16 -52 206 -46 217 6 9 -26 10 -58 2z"/>
<path d="M2157 428 c17 -21 84 -220 79 -234 -3 -8 9 -13 34 -16 30 -3 38 0 37
12 0 8 29 61 66 118 l67 102 -29 0 c-20 0 -31 -7 -39 -25 -12 -26 -38 -31
-101 -19 -24 5 -33 13 -39 38 -7 27 -13 31 -47 34 -31 3 -37 1 -28 -10z m167
-106 c7 -12 -36 -74 -45 -65 -5 5 -12 23 -15 41 -6 30 -5 32 24 32 17 0 33 -4
36 -8z"/>
<path d="M2839 423 c-1 -5 0 -12 1 -18 5 -29 16 -145 12 -145 -10 0 -157 135
-154 142 1 4 -15 8 -37 8 l-38 0 8 -44 c4 -23 9 -80 11 -124 l3 -82 34 0 c23
0 32 4 28 13 -3 8 -8 44 -12 82 l-8 68 29 -21 c16 -11 54 -43 84 -71 42 -40
61 -51 87 -51 29 0 33 3 28 23 -9 44 -24 210 -19 219 3 4 -9 8 -25 8 -17 0
-32 -3 -32 -7z"/>
</g>
</svg>
